<svg xmlns="http://www.w3.org/2000/svg" xmlns:xlink="http://www.w3.org/1999/xlink" fill="none" version="1.1" width="24" height="24" viewBox="0 0 24 24"><defs><clipPath id="master_svg0_sa221_2113"><rect x="0" y="0" width="24" height="24" rx="0"/></clipPath></defs><g clip-path="url(#master_svg0_sa221_2113)"><g><rect x="0" y="0" width="24" height="24" rx="0" fill="#FFFFFF" fill-opacity="0.009999999776482582"/></g><g><path d="M19.25,13L5.25,13Q5.1515086,13,5.05491,12.980785000000001Q4.958311,12.96157,4.867317,12.923879Q4.776322,12.886188,4.69443,12.83147Q4.612537,12.776751,4.542893,12.707107Q4.473249,12.637463,4.41853,12.55557Q4.363812,12.473678,4.326121,12.382683Q4.28843,12.291689,4.269215,12.19509Q4.25,12.0984914,4.25,12Q4.25,11.9015086,4.269215,11.80491Q4.28843,11.708311,4.326121,11.617317Q4.363812,11.526322,4.41853,11.44443Q4.473249,11.362537,4.542893,11.292893Q4.612537,11.223249,4.69443,11.16853Q4.776322,11.113812,4.867317,11.076121Q4.958311,11.03843,5.05491,11.019214999999999Q5.1515086,11,5.25,11L19.25,11Q19.3485,11,19.4451,11.019214999999999Q19.5417,11.03843,19.6327,11.076121Q19.7237,11.113812,19.8056,11.16853Q19.8875,11.223249,19.9571,11.292893Q20.026699999999998,11.362537,20.0815,11.44443Q20.136200000000002,11.526322,20.1739,11.617317Q20.2116,11.708311,20.230800000000002,11.80491Q20.25,11.9015086,20.25,12Q20.25,12.0984914,20.230800000000002,12.19509Q20.2116,12.291689,20.1739,12.382683Q20.136200000000002,12.473678,20.0815,12.55557Q20.026699999999998,12.637463,19.9571,12.707107Q19.8875,12.776751,19.8056,12.83147Q19.7237,12.886188,19.6327,12.923879Q19.5417,12.96157,19.4451,12.980785000000001Q19.3485,13,19.25,13ZM20.25,12Q20.25,12.0984914,20.230800000000002,12.19509Q20.2116,12.291689,20.1739,12.382683Q20.136200000000002,12.473678,20.0815,12.55557Q20.026699999999998,12.637463,19.9571,12.707107Q19.8875,12.776751,19.8056,12.83147Q19.7237,12.886188,19.6327,12.923879Q19.5417,12.96157,19.4451,12.980785000000001Q19.3485,13,19.25,13Q19.1515,13,19.0549,12.980785000000001Q18.9583,12.96157,18.8673,12.923879Q18.7763,12.886188,18.6944,12.83147Q18.6125,12.776751,18.5429,12.707107Q18.4732,12.637463,18.4185,12.55557Q18.363799999999998,12.473678,18.3261,12.382683Q18.2884,12.291689,18.269199999999998,12.19509Q18.25,12.0984914,18.25,12Q18.25,11.9015086,18.269199999999998,11.80491Q18.2884,11.708311,18.3261,11.617317Q18.363799999999998,11.526322,18.4185,11.44443Q18.4732,11.362537,18.5429,11.292893Q18.6125,11.223249,18.6944,11.16853Q18.7763,11.113812,18.8673,11.076121Q18.9583,11.03843,19.0549,11.019214999999999Q19.1515,11,19.25,11Q19.3485,11,19.4451,11.019214999999999Q19.5417,11.03843,19.6327,11.076121Q19.7237,11.113812,19.8056,11.16853Q19.8875,11.223249,19.9571,11.292893Q20.026699999999998,11.362537,20.0815,11.44443Q20.136200000000002,11.526322,20.1739,11.617317Q20.2116,11.708311,20.230800000000002,11.80491Q20.25,11.9015086,20.25,12ZM6.25,12Q6.25,12.0984914,6.230785,12.19509Q6.21157,12.291689,6.173879,12.382683Q6.136188,12.473678,6.08147,12.55557Q6.026751,12.637463,5.957107,12.707107Q5.887463,12.776751,5.80557,12.83147Q5.723678,12.886188,5.632683,12.923879Q5.541689,12.96157,5.44509,12.980785000000001Q5.3484914,13,5.25,13Q5.1515086,13,5.05491,12.980785000000001Q4.958311,12.96157,4.867317,12.923879Q4.776322,12.886188,4.69443,12.83147Q4.612537,12.776751,4.542893,12.707107Q4.473249,12.637463,4.41853,12.55557Q4.363812,12.473678,4.326121,12.382683Q4.28843,12.291689,4.269215,12.19509Q4.25,12.0984914,4.25,12Q4.25,11.9015086,4.269215,11.80491Q4.28843,11.708311,4.326121,11.617317Q4.363812,11.526322,4.41853,11.44443Q4.473249,11.362537,4.542893,11.292893Q4.612537,11.223249,4.69443,11.16853Q4.776322,11.113812,4.867317,11.076121Q4.958311,11.03843,5.05491,11.019214999999999Q5.1515086,11,5.25,11Q5.3484914,11,5.44509,11.019214999999999Q5.541689,11.03843,5.632683,11.076121Q5.723678,11.113812,5.80557,11.16853Q5.887463,11.223249,5.957107,11.292893Q6.026751,11.362537,6.08147,11.44443Q6.136188,11.526322,6.173879,11.617317Q6.21157,11.708311,6.230785,11.80491Q6.25,11.9015086,6.25,12Z" fill="#333333" fill-opacity="1"/></g></g></svg>