<svg xmlns="http://www.w3.org/2000/svg" xmlns:xlink="http://www.w3.org/1999/xlink" fill="none" version="1.1" width="24"
  height="24" viewBox="0 0 24 24">
  <defs>
    <clipPath id="master_svg0_sa221_2075">
      <rect x="0" y="0" width="24" height="24" rx="0" />
    </clipPath>
  </defs>
  <g clip-path="url(#master_svg0_sa221_2075)">
    <g>
      <path
        d="M10.292839866485597,12.707159828338623L4.635999866485596,18.36399982833862C4.245529866485596,18.754499828338624,3.6124698664855956,18.754499828338624,3.2219998664855956,18.36399982833862C2.8315348664855957,17.973499828338625,2.8315348664855957,17.340499828338622,3.2219998664855956,16.949999828338623L7.464889866485596,12.707109828338623C7.855419866485596,12.316579828338623,7.855419866485596,11.683419828338623,7.464889866485596,11.292889828338623L3.2220248664855955,7.050019828338623C2.8315858664855957,6.659589828338623,2.831697866485596,6.026529828338623,3.222274866485596,5.636224828338623C3.612639866485596,5.246138828338623,4.245269866485596,5.246228828338623,4.635529866485596,5.636424828338623L10.292789866485595,11.292889828338623C10.683359866485596,11.683409828338622,10.683389866485596,12.316609828338624,10.292839866485597,12.707159828338623M11.999999866485595,18.999999828338623L19.999999866485595,18.999999828338623C20.552299866485594,18.999999828338623,20.999999866485595,19.44769982833862,20.999999866485595,19.999999828338623C20.999999866485595,20.552299828338622,20.552299866485594,20.999999828338623,19.999999866485595,20.999999828338623L11.999999866485595,20.999999828338623C11.447719866485595,20.999999828338623,10.999999866485595,20.552299828338622,10.999999866485595,19.999999828338623C10.999999866485595,19.44769982833862,11.447719866485595,18.999999828338623,11.999999866485595,18.999999828338623"
        fill="#333333" fill-opacity="1" />
    </g>
  </g>
</svg>
