<svg xmlns="http://www.w3.org/2000/svg" xmlns:xlink="http://www.w3.org/1999/xlink" fill="none" version="1.1" width="24"
  height="24" viewBox="0 0 24 24">
  <clipPath id="master_svg0_149_1257">
    <rect x="0" y="0" width="24" height="24" rx="0" />
  </clipPath>
  <g clip-path="url(#master_svg0_149_1257)" style="mix-blend-mode:passthrough">
    <g>
      <g style="mix-blend-mode:passthrough">
        <path
          d="M4.18,3C3.5283,3,3,3.5283,3,4.18C3,4.18,3,6,3,6C3,6,6,6,6,6C6,6,6,3,6,3C6,3,4.18,3,4.18,3C4.18,3,4.18,3,4.18,3ZM4.18,1C2.42373,1,1,2.42373,1,4.18C1,4.18,1,19.82,1,19.82C1,21.5763,2.42373,23,4.18,23C4.18,23,19.82,23,19.82,23C21.5763,23,23,21.5763,23,19.82C23,19.82,23,4.18,23,4.18C23,2.42373,21.5763,1,19.82,1C19.82,1,4.18,1,4.18,1C4.18,1,4.18,1,4.18,1ZM8,3C8,3,8,11,8,11C8,11,16,11,16,11C16,11,16,3,16,3C16,3,8,3,8,3C8,3,8,3,8,3ZM18,3C18,3,18,6,18,6C18,6,21,6,21,6C21,6,21,4.18,21,4.18C21,3.5283,20.4717,3,19.82,3C19.82,3,18,3,18,3C18,3,18,3,18,3ZM21,8C21,8,18,8,18,8C18,8,18,11,18,11C18,11,21,11,21,11C21,11,21,8,21,8C21,8,21,8,21,8ZM21,13C21,13,18,13,18,13C18,13,18,16,18,16C18,16,21,16,21,16C21,16,21,13,21,13C21,13,21,13,21,13ZM21,18C21,18,18,18,18,18C18,18,18,21,18,21C18,21,19.82,21,19.82,21C20.4717,21,21,20.4717,21,19.82C21,19.82,21,18,21,18C21,18,21,18,21,18ZM16,21C16,21,16,13,16,13C16,13,8,13,8,13C8,13,8,21,8,21C8,21,16,21,16,21C16,21,16,21,16,21ZM6,21C6,21,6,18,6,18C6,18,3,18,3,18C3,18,3,19.82,3,19.82C3,20.4717,3.5283,21,4.18,21C4.18,21,6,21,6,21C6,21,6,21,6,21ZM3,16C3,16,6,16,6,16C6,16,6,13,6,13C6,13,3,13,3,13C3,13,3,16,3,16C3,16,3,16,3,16ZM3,11C3,11,6,11,6,11C6,11,6,8,6,8C6,8,3,8,3,8C3,8,3,11,3,11C3,11,3,11,3,11Z"
          fill-rule="evenodd" fill="#333333" fill-opacity="1" />
      </g>
    </g>
  </g>
</svg>
