<svg xmlns="http://www.w3.org/2000/svg" xmlns:xlink="http://www.w3.org/1999/xlink" fill="none" version="1.1" width="24"
  height="24" viewBox="0 0 24 24">
  <defs>
    <clipPath id="master_svg0_sa221_2104">
      <rect x="0" y="0" width="24" height="24" rx="0" />
    </clipPath>
  </defs>
  <g clip-path="url(#master_svg0_sa221_2104)">
    <g>
      <path
        d="M1.5,16L1.5,4Q1.5,3.171573,2.085786,2.585786Q2.671573,2,3.5,2L20.5,2Q21.3284,2,21.9142,2.58579Q22.5,3.171575,22.5,4L22.5,16Q22.5,16.828400000000002,21.9142,17.4142Q21.3284,18,20.5,18L3.5,18Q2.671573,18,2.08579,17.4142Q1.5,16.828400000000002,1.5,16ZM3.5,16L3.5,16L20.5,16L20.5,16L20.5,4L20.5,4L3.5,4L3.5,4L3.5,16Z"
        fill="#333333" fill-opacity="1" />
    </g>
    <g>
      <path
        d="M1.5,16L1.5,13Q1.5,12.171561,2.08579,11.585777Q2.671573,11,3.5,11L20.5,11Q21.3284,11,21.9142,11.58578Q22.5,12.171562,22.5,13L22.5,16Q22.5,16.82844,21.9142,17.41422Q21.3284,18,20.5,18L3.5,18Q2.671573,18,2.08579,17.41422Q1.5,16.82844,1.5,16ZM3.5,16L3.5,16L20.5,16L20.5,16L20.5,13L20.5,13L3.5,13L3.5,13L3.5,16Z"
        fill="#333333" fill-opacity="1" />
    </g>
    <g>
      <path
        d="M8.219131,7.8753L10.21913,5.375305Q10.28066,5.298396,10.35601,5.234968Q10.43136,5.171541,10.51763,5.124032Q10.603909999999999,5.076522,10.69779,5.046758Q10.79168,5.016993,10.889569999999999,5.0061160000000005Q10.98746,4.99524,11.08559,5.003669Q11.183720000000001,5.012099,11.27832,5.039511Q11.37292,5.066923,11.46035,5.1122630000000004Q11.547789999999999,5.157604,11.6247,5.219131Q11.7016,5.280658,11.76503,5.356007Q11.82846,5.431356,11.87597,5.517632Q11.92348,5.603907,11.953240000000001,5.697793Q11.98301,5.791679,11.99388,5.889568Q12.004760000000001,5.9874575,11.99633,6.0855875Q11.9879,6.183717,11.96049,6.278317Q11.93308,6.372917,11.88774,6.460352Q11.8424,6.547786,11.78087,6.624695L9.780869,9.1247Q9.719342,9.2016,9.643993,9.26503Q9.568644,9.32846,9.482368,9.37597Q9.396093,9.42348,9.302207,9.453240000000001Q9.208321,9.48301,9.110432,9.49388Q9.0125425,9.504760000000001,8.9144125,9.49633Q8.816283,9.4879,8.721683,9.46049Q8.627083,9.43308,8.539648,9.38774Q8.452214,9.3424,8.375305,9.28087Q8.298396,9.219339999999999,8.234968,9.14399Q8.171541,9.06864,8.124032,8.98237Q8.076522,8.896090000000001,8.046758,8.80221Q8.016993,8.70832,8.006116,8.610430000000001Q7.99524,8.51254,8.003669,8.41441Q8.012099,8.316279999999999,8.039511,8.22168Q8.066923,8.12708,8.112263,8.03965Q8.157604,7.95221,8.219131,7.8753ZM10,8.5Q10,8.59849,9.980785000000001,8.69509Q9.96157,8.79169,9.923879,8.88268Q9.886188,8.97368,9.83147,9.05557Q9.776751,9.13746,9.707107,9.20711Q9.637463,9.27675,9.55557,9.33147Q9.473678,9.38619,9.382683,9.42388Q9.291689,9.46157,9.19509,9.48078Q9.0984914,9.5,9,9.5Q8.9015086,9.5,8.80491,9.48078Q8.708311,9.46157,8.617317,9.42388Q8.526322,9.38619,8.44443,9.33147Q8.362537,9.27675,8.292893,9.20711Q8.223249,9.13746,8.16853,9.05557Q8.113812,8.97368,8.076121,8.88268Q8.03843,8.79169,8.019214999999999,8.69509Q8,8.59849,8,8.5Q8,8.40151,8.019214999999999,8.30491Q8.03843,8.20831,8.076121,8.11732Q8.113812,8.02632,8.16853,7.9444300000000005Q8.223249,7.86254,8.292893,7.79289Q8.362537,7.72325,8.44443,7.6685300000000005Q8.526322,7.61381,8.617317,7.5761199999999995Q8.708311,7.53843,8.80491,7.51921Q8.9015086,7.5,9,7.5Q9.0984914,7.5,9.19509,7.51921Q9.291689,7.53843,9.382683,7.5761199999999995Q9.473678,7.61381,9.55557,7.6685300000000005Q9.637463,7.72325,9.707107,7.79289Q9.776751,7.86254,9.83147,7.9444300000000005Q9.886188,8.02632,9.923879,8.11732Q9.96157,8.20831,9.980785000000001,8.30491Q10,8.40151,10,8.5ZM12,6Q12,6.0984914,11.98078,6.19509Q11.96157,6.291689,11.92388,6.382683Q11.88619,6.473678,11.83147,6.55557Q11.77675,6.637463,11.70711,6.707107Q11.63746,6.776751,11.55557,6.83147Q11.47368,6.886188,11.38268,6.923879Q11.29169,6.96157,11.19509,6.980785Q11.09849,7,11,7Q10.90151,7,10.80491,6.980785Q10.70831,6.96157,10.61732,6.923879Q10.52632,6.886188,10.44443,6.83147Q10.36254,6.776751,10.29289,6.707107Q10.22325,6.637463,10.16853,6.55557Q10.11381,6.473678,10.07612,6.382683Q10.03843,6.291689,10.01921,6.19509Q10,6.0984914,10,6Q10,5.9015086,10.01921,5.80491Q10.03843,5.708311,10.07612,5.617317Q10.11381,5.526322,10.16853,5.44443Q10.22325,5.362537,10.29289,5.292893Q10.36254,5.223249,10.44443,5.16853Q10.52632,5.113812,10.61732,5.076121Q10.70831,5.03843,10.80491,5.019215Q10.90151,5,11,5Q11.09849,5,11.19509,5.019215Q11.29169,5.03843,11.38268,5.076121Q11.47368,5.113812,11.55557,5.16853Q11.63746,5.223249,11.70711,5.292893Q11.77675,5.362537,11.83147,5.44443Q11.88619,5.526322,11.92388,5.617317Q11.96157,5.708311,11.98078,5.80491Q12,5.9015086,12,6Z"
        fill="#333333" fill-opacity="1" />
    </g>
    <g>
      <path
        d="M11.7,8.4L13.2,6.4Q13.259095,6.321207,13.332426,6.255457Q13.405757,6.189706,13.490506,6.139526Q13.57526,6.089345,13.66817,6.056662Q13.76108,6.023979,13.85858,6.010051Q13.95608,5.9961199999999995,14.05443,6.001482Q14.15277,6.006843,14.24818,6.031286Q14.34359,6.05573,14.4324,6.098318Q14.52121,6.140905,14.6,6.2Q14.67879,6.259095,14.74454,6.332426Q14.81029,6.405757,14.86047,6.490506Q14.91065,6.5752559999999995,14.94334,6.668166Q14.97602,6.761077,14.98995,6.858579Q15.00388,6.9560802,14.99852,7.0544256Q14.99316,7.1527709999999995,14.96871,7.248181Q14.94427,7.343591,14.901679999999999,7.432399Q14.85909,7.521207,14.8,7.6L13.3,9.6Q13.240905,9.67879,13.167574,9.74454Q13.094243,9.81029,13.009494,9.86047Q12.924744,9.91065,12.831834,9.94334Q12.738923,9.97602,12.641421,9.98995Q12.5439198,10.00388,12.4455744,9.99852Q12.347229,9.99316,12.251819,9.96871Q12.156409,9.94427,12.067601,9.901679999999999Q11.978793,9.85909,11.9,9.8Q11.821207,9.7409,11.755457,9.66757Q11.689706,9.59424,11.639526,9.50949Q11.589345,9.42474,11.556662,9.33183Q11.523979,9.23892,11.510051,9.14142Q11.49612,9.04392,11.501482,8.94557Q11.506843,8.84723,11.531286,8.75182Q11.55573,8.65641,11.598318,8.5676Q11.640905,8.47879,11.7,8.4ZM13.5,9Q13.5,9.09849,13.480785000000001,9.19509Q13.46157,9.29169,13.423879,9.38268Q13.386188,9.47368,13.33147,9.55557Q13.276751,9.63746,13.207107,9.70711Q13.137463,9.77675,13.05557,9.83147Q12.973678,9.88619,12.882683,9.92388Q12.791689,9.96157,12.69509,9.98078Q12.5984914,10,12.5,10Q12.4015086,10,12.30491,9.98078Q12.208311,9.96157,12.117317,9.92388Q12.026322,9.88619,11.94443,9.83147Q11.862537,9.77675,11.792893,9.70711Q11.723249,9.63746,11.66853,9.55557Q11.613812,9.47368,11.576121,9.38268Q11.53843,9.29169,11.519214999999999,9.19509Q11.5,9.09849,11.5,9Q11.5,8.90151,11.519214999999999,8.80491Q11.53843,8.70831,11.576121,8.61732Q11.613812,8.52632,11.66853,8.44443Q11.723249,8.36254,11.792893,8.29289Q11.862537,8.22325,11.94443,8.16853Q12.026322,8.11381,12.117317,8.07612Q12.208311,8.03843,12.30491,8.01921Q12.4015086,8,12.5,8Q12.5984914,8,12.69509,8.01921Q12.791689,8.03843,12.882683,8.07612Q12.973678,8.11381,13.05557,8.16853Q13.137463,8.22325,13.207107,8.29289Q13.276751,8.36254,13.33147,8.44443Q13.386188,8.52632,13.423879,8.61732Q13.46157,8.70831,13.480785000000001,8.80491Q13.5,8.90151,13.5,9ZM15,7Q15,7.0984914,14.98078,7.19509Q14.96157,7.291689,14.92388,7.382683Q14.88619,7.473678,14.83147,7.55557Q14.77675,7.637463,14.70711,7.707107Q14.63746,7.776751,14.55557,7.83147Q14.47368,7.886188,14.38268,7.923879Q14.29169,7.96157,14.19509,7.980785Q14.09849,8,14,8Q13.90151,8,13.80491,7.980785Q13.70831,7.96157,13.61732,7.923879Q13.52632,7.886188,13.44443,7.83147Q13.362537,7.776751,13.292893,7.707107Q13.223249,7.637463,13.16853,7.55557Q13.113811,7.473678,13.07612,7.382683Q13.038429,7.291689,13.019214999999999,7.19509Q13,7.0984914,13,7Q13,6.9015086,13.019214999999999,6.80491Q13.038429,6.708311,13.07612,6.617317Q13.113811,6.526322,13.16853,6.44443Q13.223249,6.362537,13.292893,6.292893Q13.362537,6.223249,13.44443,6.16853Q13.52632,6.113812,13.61732,6.076121Q13.70831,6.03843,13.80491,6.019215Q13.90151,6,14,6Q14.09849,6,14.19509,6.019215Q14.29169,6.03843,14.38268,6.076121Q14.47368,6.113812,14.55557,6.16853Q14.63746,6.223249,14.70711,6.292893Q14.77675,6.362537,14.83147,6.44443Q14.88619,6.526322,14.92388,6.617317Q14.96157,6.708311,14.98078,6.80491Q15,6.9015086,15,7Z"
        fill="#333333" fill-opacity="1" />
    </g>
    <g>
      <ellipse cx="12" cy="14.5" rx="1" ry="1" fill="#333333" fill-opacity="1" />
    </g>
    <g>
      <path
        d="M16.436329999999998,16.648877L17.9363,20.64888Q17.9709,20.7411,17.986800000000002,20.83829Q18.0028,20.93549,17.9994,21.033920000000002Q17.9961,21.13236,17.973599999999998,21.22825Q17.9511,21.32414,17.9104,21.413800000000002Q17.8696,21.50347,17.8121,21.58346Q17.7547,21.66344,17.6827,21.73069Q17.6107,21.79793,17.527,21.84984Q17.4433,21.90175,17.351100000000002,21.936329999999998Q17.1813,22,17,22L7,22Q6.9015086,22,6.80491,21.98078Q6.708311,21.961570000000002,6.617317,21.92388Q6.526322,21.88619,6.44443,21.83147Q6.362537,21.77675,6.292893,21.70711Q6.223249,21.63746,6.16853,21.55557Q6.113812,21.47368,6.076121,21.38268Q6.03843,21.29169,6.019215,21.19509Q6,21.098489999999998,6,21Q6,20.81867,6.063671,20.64888L7.563671,16.648877Q7.598253,16.556656,7.650163,16.472955Q7.702072,16.389253,7.769314,16.317287Q7.836555,16.24532,7.916544,16.187855Q7.9965340000000005,16.13039,8.0862,16.089634Q8.17586,16.048878,8.27175,16.026397Q8.36764,16.003917,8.46608,16.000576Q8.56451,15.99723,8.66171,16.013161Q8.7589,16.029088,8.85112,16.063671Q8.94334,16.098254,9.02705,16.150163Q9.11075,16.202073,9.18271,16.269314Q9.25468,16.336555,9.31214,16.416545Q9.36961,16.496534,9.41037,16.586197Q9.45112,16.67586,9.4736,16.771752Q9.49608,16.867643,9.49942,16.9660781Q9.50277,17.0645128,9.48684,17.161708Q9.47091,17.258903,9.43633,17.351123L7.936329,21.35112L7,21L7,20L17,20L17,21L16.063670000000002,21.35112L14.56367,17.351123Q14.52909,17.258903,14.51316,17.161708Q14.49723,17.0645128,14.50057,16.9660781Q14.50392,16.867643,14.526399999999999,16.771752Q14.54888,16.67586,14.58963,16.586197Q14.63039,16.496534,14.687850000000001,16.416545Q14.74532,16.336555,14.81728,16.269314Q14.88925,16.202073,14.97295,16.150163Q15.05665,16.098254,15.14888,16.063671Q15.2411,16.029088,15.33829,16.013161Q15.43548,15.99723,15.53392,16.000576Q15.63236,16.003917,15.72825,16.026397Q15.82414,16.048878,15.9138,16.089634Q16.00346,16.13039,16.08345,16.187855Q16.16344,16.24532,16.23068,16.317287Q16.29793,16.389253,16.34983,16.472955Q16.40174,16.556656,16.436329999999998,16.648877ZM16.5,17Q16.5,17.0984914,16.48078,17.19509Q16.461570000000002,17.291689,16.42388,17.382683Q16.38619,17.473678,16.33147,17.55557Q16.27675,17.637463,16.20711,17.707107Q16.13746,17.776751,16.05557,17.83147Q15.97368,17.886188,15.88268,17.923879Q15.79169,17.961570000000002,15.69509,17.980785Q15.59849,18,15.5,18Q15.40151,18,15.30491,17.980785Q15.20831,17.961570000000002,15.11732,17.923879Q15.02632,17.886188,14.94443,17.83147Q14.86254,17.776751,14.79289,17.707107Q14.72325,17.637463,14.66853,17.55557Q14.61381,17.473678,14.57612,17.382683Q14.53843,17.291689,14.519210000000001,17.19509Q14.5,17.0984914,14.5,17Q14.5,16.9015086,14.519210000000001,16.80491Q14.53843,16.708311,14.57612,16.617317Q14.61381,16.526322,14.66853,16.44443Q14.72325,16.362537,14.79289,16.292893Q14.86254,16.223249,14.94443,16.16853Q15.02632,16.113812,15.11732,16.076121Q15.20831,16.038429999999998,15.30491,16.019215Q15.40151,16,15.5,16Q15.59849,16,15.69509,16.019215Q15.79169,16.038429999999998,15.88268,16.076121Q15.97368,16.113812,16.05557,16.16853Q16.13746,16.223249,16.20711,16.292893Q16.27675,16.362537,16.33147,16.44443Q16.38619,16.526322,16.42388,16.617317Q16.461570000000002,16.708311,16.48078,16.80491Q16.5,16.9015086,16.5,17ZM9.5,17Q9.5,17.0984914,9.48078,17.19509Q9.46157,17.291689,9.42388,17.382683Q9.38619,17.473678,9.33147,17.55557Q9.27675,17.637463,9.20711,17.707107Q9.13746,17.776751,9.05557,17.83147Q8.97368,17.886188,8.88268,17.923879Q8.79169,17.961570000000002,8.69509,17.980785Q8.59849,18,8.5,18Q8.40151,18,8.30491,17.980785Q8.20831,17.961570000000002,8.11732,17.923879Q8.02632,17.886188,7.94443,17.83147Q7.862537,17.776751,7.792893,17.707107Q7.723249,17.637463,7.66853,17.55557Q7.613811,17.473678,7.5761199999999995,17.382683Q7.538429,17.291689,7.519215,17.19509Q7.5,17.0984914,7.5,17Q7.5,16.9015086,7.519215,16.80491Q7.538429,16.708311,7.5761199999999995,16.617317Q7.613811,16.526322,7.66853,16.44443Q7.723249,16.362537,7.792893,16.292893Q7.862537,16.223249,7.94443,16.16853Q8.02632,16.113812,8.11732,16.076121Q8.20831,16.038429999999998,8.30491,16.019215Q8.40151,16,8.5,16Q8.59849,16,8.69509,16.019215Q8.79169,16.038429999999998,8.88268,16.076121Q8.97368,16.113812,9.05557,16.16853Q9.13746,16.223249,9.20711,16.292893Q9.27675,16.362537,9.33147,16.44443Q9.38619,16.526322,9.42388,16.617317Q9.46157,16.708311,9.48078,16.80491Q9.5,16.9015086,9.5,17Z"
        fill="#333333" fill-opacity="1" />
    </g>
  </g>
</svg>
