<svg xmlns="http://www.w3.org/2000/svg" xmlns:xlink="http://www.w3.org/1999/xlink" fill="none" version="1.1" width="24" height="24" viewBox="0 0 24 24"><defs><clipPath id="master_svg0_215_2701"><rect x="0" y="0" width="24" height="24" rx="0"/></clipPath></defs><g clip-path="url(#master_svg0_215_2701)"><g></g><g></g><g><path d="M19.5,22L4.5,22Q4.40151,22,4.30491,21.9808Q4.20831,21.9616,4.117319999999999,21.9239Q4.02632,21.8862,3.94443,21.8315Q3.86254,21.7767,3.79289,21.7071Q3.72325,21.6375,3.66853,21.5556Q3.61381,21.4737,3.57612,21.3827Q3.53843,21.2917,3.51921,21.1951Q3.5,21.0985,3.5,21L3.5,9L4.5,9L5.1247,9.78087L2.624695,11.78087L2,11L1.375305,10.21913L11.37531,2.219131Q11.44132,2.1663170000000003,11.51527,2.125337Q11.58922,2.084356,11.66899,2.056372Q11.74877,2.028387,11.83211,2.014194Q11.91546,2,12,2Q12.0845,2,12.1679,2.014194Q12.2512,2.028387,12.331,2.056372Q12.4108,2.084356,12.4847,2.125337Q12.5587,2.1663170000000003,12.6247,2.219131L22.6247,10.21913L22,11L21.3753,11.78087L18.8753,9.78087L19.5,9L20.5,9L20.5,21Q20.5,21.0985,20.4808,21.1951Q20.4616,21.2917,20.4239,21.3827Q20.3862,21.4737,20.3315,21.5556Q20.2767,21.6375,20.2071,21.7071Q20.1375,21.7767,20.0556,21.8315Q19.9737,21.8862,19.8827,21.9239Q19.7917,21.9616,19.6951,21.9808Q19.5985,22,19.5,22ZM19.5,20L19.5,21L18.5,21L18.5,9Q18.5,8.829699999999999,18.5564,8.66899Q18.6127,8.508289999999999,18.7191,8.375309999999999Q18.7807,8.2984,18.856,8.23497Q18.9314,8.17154,19.0176,8.124030000000001Q19.1039,8.07652,19.1978,8.046759999999999Q19.2917,8.01699,19.3896,8.00612Q19.4875,7.99524,19.5856,8.00367Q19.6837,8.0121,19.7783,8.03951Q19.8729,8.06692,19.9604,8.11226Q20.0478,8.1576,20.1247,8.21913L22.6247,10.21913Q22.7016,10.280660000000001,22.765,10.356010000000001Q22.8285,10.43135,22.876,10.51763Q22.9235,10.603909999999999,22.9532,10.697790000000001Q22.983,10.79168,22.9939,10.889569999999999Q23.0048,10.987459999999999,22.9963,11.08559Q22.9879,11.18372,22.9605,11.27832Q22.9331,11.37292,22.8877,11.46035Q22.8424,11.54779,22.7809,11.62469Q22.7193,11.7016,22.644,11.76503Q22.5686,11.82846,22.4824,11.87597Q22.3961,11.92348,22.3022,11.95324Q22.2083,11.98301,22.1104,11.99388Q22.0125,12.00476,21.9144,11.99633Q21.8163,11.9879,21.7217,11.96049Q21.6271,11.93308,21.5396,11.88774Q21.4522,11.84239,21.3753,11.78087L11.37531,3.780869L12,3L12.6247,3.780869L2.624695,11.78087Q2.547786,11.84239,2.460352,11.88774Q2.372917,11.93308,2.278317,11.96049Q2.183717,11.9879,2.0855875,11.99633Q1.9874575,12.00476,1.889568,11.99388Q1.791679,11.98301,1.6977929999999999,11.95324Q1.603907,11.92348,1.5176319999999999,11.87597Q1.431356,11.82846,1.356007,11.76503Q1.2806579999999999,11.7016,1.219131,11.62469Q1.157604,11.54779,1.112263,11.46035Q1.066923,11.37292,1.039511,11.27832Q1.012099,11.18372,1.003669,11.08559Q0.9952399999999999,10.987459999999999,1.006116,10.889569999999999Q1.016993,10.79168,1.046758,10.697790000000001Q1.076522,10.603909999999999,1.1240320000000001,10.51763Q1.171541,10.43135,1.2349679999999998,10.356010000000001Q1.2983959999999999,10.280660000000001,1.375305,10.21913L3.8753,8.21913Q4.008290000000001,8.112739999999999,4.16899,8.056370000000001Q4.3297,8,4.5,8Q4.59849,8,4.69509,8.019210000000001Q4.79169,8.03843,4.882680000000001,8.07612Q4.97368,8.11381,5.0555699999999995,8.16853Q5.13746,8.22325,5.20711,8.29289Q5.27675,8.36254,5.3314699999999995,8.44443Q5.38619,8.52632,5.4238800000000005,8.61732Q5.46157,8.70831,5.48078,8.80491Q5.5,8.90151,5.5,9L5.5,21L4.5,21L4.5,20L19.5,20Z" fill="#333333" fill-opacity="1"/></g><g><path d="M8.5,14.5L8.5,21Q8.5,21.098489999999998,8.519214999999999,21.19509Q8.53843,21.29169,8.576121,21.38268Q8.613812,21.47368,8.66853,21.55557Q8.723249,21.63746,8.792893,21.70711Q8.862537,21.77675,8.94443,21.83147Q9.026322,21.88619,9.117317,21.92388Q9.208311,21.961570000000002,9.30491,21.98078Q9.4015086,22,9.5,22L14.5,22Q14.59849,22,14.69509,21.98078Q14.79169,21.961570000000002,14.88268,21.92388Q14.97368,21.88619,15.05557,21.83147Q15.13746,21.77675,15.20711,21.70711Q15.27675,21.63746,15.33147,21.55557Q15.38619,21.47368,15.42388,21.38268Q15.46157,21.29169,15.48078,21.19509Q15.5,21.098489999999998,15.5,21L15.5,14.5Q15.5,14.4015086,15.48078,14.30491Q15.46157,14.208311,15.42388,14.117317Q15.38619,14.026322,15.33147,13.94443Q15.27675,13.862537,15.20711,13.792893Q15.13746,13.723249,15.05557,13.66853Q14.97368,13.613812,14.88268,13.576121Q14.79169,13.53843,14.69509,13.519214999999999Q14.59849,13.5,14.5,13.5L9.5,13.5Q9.4015086,13.5,9.30491,13.519214999999999Q9.208311,13.53843,9.117317,13.576121Q9.026322,13.613812,8.94443,13.66853Q8.862537,13.723249,8.792893,13.792893Q8.723249,13.862537,8.66853,13.94443Q8.613812,14.026322,8.576121,14.117317Q8.53843,14.208311,8.519214999999999,14.30491Q8.5,14.4015086,8.5,14.5ZM10.5,15.5L13.5,15.5L13.5,20L10.5,20L10.5,15.5Z" fill="#333333" fill-opacity="1"/></g><g><path d="M19.5,22L4.5,22Q4.4015086,22,4.30491,21.980785Q4.208311,21.961570000000002,4.117317,21.923879Q4.026322,21.886188,3.94443,21.83147Q3.862537,21.776751,3.792893,21.707107Q3.723249,21.637463,3.66853,21.55557Q3.6138120000000002,21.473678,3.576121,21.382683Q3.53843,21.291689,3.519215,21.19509Q3.5,21.0984914,3.5,21Q3.5,20.9015086,3.519215,20.80491Q3.53843,20.708311,3.576121,20.617317Q3.6138120000000002,20.526322,3.66853,20.44443Q3.723249,20.362537,3.792893,20.292893Q3.862537,20.223249,3.94443,20.16853Q4.026322,20.113812,4.117317,20.076121Q4.208311,20.038429999999998,4.30491,20.019215Q4.4015086,20,4.5,20L19.5,20Q19.5985,20,19.6951,20.019215Q19.7917,20.038429999999998,19.8827,20.076121Q19.9737,20.113812,20.0556,20.16853Q20.1375,20.223249,20.2071,20.292893Q20.276699999999998,20.362537,20.3315,20.44443Q20.386200000000002,20.526322,20.4239,20.617317Q20.4616,20.708311,20.480800000000002,20.80491Q20.5,20.9015086,20.5,21Q20.5,21.0984914,20.480800000000002,21.19509Q20.4616,21.291689,20.4239,21.382683Q20.386200000000002,21.473678,20.3315,21.55557Q20.276699999999998,21.637463,20.2071,21.707107Q20.1375,21.776751,20.0556,21.83147Q19.9737,21.886188,19.8827,21.923879Q19.7917,21.961570000000002,19.6951,21.980785Q19.5985,22,19.5,22ZM20.5,21Q20.5,21.0984914,20.480800000000002,21.19509Q20.4616,21.291689,20.4239,21.382683Q20.386200000000002,21.473678,20.3315,21.55557Q20.276699999999998,21.637463,20.2071,21.707107Q20.1375,21.776751,20.0556,21.83147Q19.9737,21.886188,19.8827,21.923879Q19.7917,21.961570000000002,19.6951,21.980785Q19.5985,22,19.5,22Q19.4015,22,19.3049,21.980785Q19.2083,21.961570000000002,19.1173,21.923879Q19.0263,21.886188,18.9444,21.83147Q18.8625,21.776751,18.7929,21.707107Q18.7232,21.637463,18.6685,21.55557Q18.613799999999998,21.473678,18.5761,21.382683Q18.5384,21.291689,18.519199999999998,21.19509Q18.5,21.0984914,18.5,21Q18.5,20.9015086,18.519199999999998,20.80491Q18.5384,20.708311,18.5761,20.617317Q18.613799999999998,20.526322,18.6685,20.44443Q18.7232,20.362537,18.7929,20.292893Q18.8625,20.223249,18.9444,20.16853Q19.0263,20.113812,19.1173,20.076121Q19.2083,20.038429999999998,19.3049,20.019215Q19.4015,20,19.5,20Q19.5985,20,19.6951,20.019215Q19.7917,20.038429999999998,19.8827,20.076121Q19.9737,20.113812,20.0556,20.16853Q20.1375,20.223249,20.2071,20.292893Q20.276699999999998,20.362537,20.3315,20.44443Q20.386200000000002,20.526322,20.4239,20.617317Q20.4616,20.708311,20.480800000000002,20.80491Q20.5,20.9015086,20.5,21ZM5.5,21Q5.5,21.0984914,5.480785,21.19509Q5.46157,21.291689,5.423879,21.382683Q5.386188,21.473678,5.33147,21.55557Q5.276751,21.637463,5.207107,21.707107Q5.137463,21.776751,5.05557,21.83147Q4.973678,21.886188,4.882683,21.923879Q4.791689,21.961570000000002,4.69509,21.980785Q4.5984914,22,4.5,22Q4.4015086,22,4.30491,21.980785Q4.208311,21.961570000000002,4.117317,21.923879Q4.026322,21.886188,3.94443,21.83147Q3.862537,21.776751,3.792893,21.707107Q3.723249,21.637463,3.66853,21.55557Q3.6138120000000002,21.473678,3.576121,21.382683Q3.53843,21.291689,3.519215,21.19509Q3.5,21.0984914,3.5,21Q3.5,20.9015086,3.519215,20.80491Q3.53843,20.708311,3.576121,20.617317Q3.6138120000000002,20.526322,3.66853,20.44443Q3.723249,20.362537,3.792893,20.292893Q3.862537,20.223249,3.94443,20.16853Q4.026322,20.113812,4.117317,20.076121Q4.208311,20.038429999999998,4.30491,20.019215Q4.4015086,20,4.5,20Q4.5984914,20,4.69509,20.019215Q4.791689,20.038429999999998,4.882683,20.076121Q4.973678,20.113812,5.05557,20.16853Q5.137463,20.223249,5.207107,20.292893Q5.276751,20.362537,5.33147,20.44443Q5.386188,20.526322,5.423879,20.617317Q5.46157,20.708311,5.480785,20.80491Q5.5,20.9015086,5.5,21Z" fill="#333333" fill-opacity="1"/></g></g></svg>