<svg width="24" height="25" viewBox="0 0 24 25" fill="none" xmlns="http://www.w3.org/2000/svg">
<g clip-path="url(#clip0_205_506)">
<path d="M11.8122 15.4627C13.3416 15.4627 14.5814 14.2228 14.5814 12.6934C14.5814 11.164 13.3416 9.92419 11.8122 9.92419C10.2828 9.92419 9.04297 11.164 9.04297 12.6934C9.04297 14.2228 10.2828 15.4627 11.8122 15.4627Z" stroke="#34353C" stroke-width="1.84615" stroke-linecap="round" stroke-linejoin="round"/>
<path d="M18.6428 15.4627C18.5199 15.7411 18.4833 16.0499 18.5376 16.3494C18.5919 16.6488 18.7346 16.9251 18.9474 17.1427L19.0028 17.1981C19.1745 17.3695 19.3106 17.5731 19.4035 17.7973C19.4965 18.0214 19.5443 18.2616 19.5443 18.5042C19.5443 18.7468 19.4965 18.9871 19.4035 19.2112C19.3106 19.4353 19.1745 19.6389 19.0028 19.8104C18.8314 19.982 18.6278 20.1182 18.4036 20.2111C18.1795 20.304 17.9393 20.3518 17.6967 20.3518C17.4541 20.3518 17.2138 20.304 16.9897 20.2111C16.7656 20.1182 16.562 19.982 16.3905 19.8104L16.3351 19.755C16.1176 19.5422 15.8413 19.3994 15.5418 19.3451C15.2424 19.2909 14.9335 19.3275 14.6551 19.4504C14.3821 19.5674 14.1493 19.7617 13.9853 20.0093C13.8212 20.257 13.7332 20.5472 13.7321 20.8442V21.0012C13.7321 21.4908 13.5375 21.9604 13.1913 22.3066C12.8451 22.6528 12.3755 22.8473 11.8859 22.8473C11.3963 22.8473 10.9267 22.6528 10.5805 22.3066C10.2342 21.9604 10.0397 21.4908 10.0397 21.0012V20.9181C10.0326 20.6125 9.9337 20.3162 9.75591 20.0676C9.57811 19.8191 9.32965 19.6297 9.04282 19.5242C8.7644 19.4014 8.45556 19.3647 8.15612 19.419C7.85668 19.4733 7.58037 19.616 7.36282 19.8288L7.30743 19.8842C7.13598 20.0559 6.93237 20.192 6.70825 20.285C6.48413 20.3779 6.24389 20.4257 6.00128 20.4257C5.75867 20.4257 5.51843 20.3779 5.29431 20.285C5.07019 20.192 4.86658 20.0559 4.69513 19.8842C4.52348 19.7128 4.38731 19.5092 4.2944 19.285C4.20149 19.0609 4.15367 18.8207 4.15367 18.5781C4.15367 18.3355 4.20149 18.0952 4.2944 17.8711C4.38731 17.647 4.52348 17.4434 4.69513 17.2719L4.75051 17.2165C4.96331 16.999 5.10607 16.7227 5.16036 16.4232C5.21466 16.1238 5.178 15.815 5.05513 15.5365C4.93811 15.2635 4.74382 15.0307 4.49617 14.8667C4.24852 14.7027 3.95831 14.6146 3.66128 14.6135H3.50436C3.01473 14.6135 2.54515 14.419 2.19893 14.0727C1.85271 13.7265 1.6582 13.2569 1.6582 12.7673C1.6582 12.2777 1.85271 11.8081 2.19893 11.4619C2.54515 11.1157 3.01473 10.9212 3.50436 10.9212H3.58743C3.89297 10.914 4.18928 10.8151 4.43786 10.6373C4.68644 10.4595 4.87579 10.2111 4.98128 9.92423C5.10416 9.64581 5.14081 9.33697 5.08652 9.03753C5.03222 8.73809 4.88947 8.46178 4.67666 8.24423L4.62128 8.18884C4.44963 8.01738 4.31346 7.81378 4.22055 7.58966C4.12765 7.36554 4.07983 7.1253 4.07983 6.88269C4.07983 6.64008 4.12765 6.39984 4.22055 6.17572C4.31346 5.9516 4.44963 5.74799 4.62128 5.57654C4.79274 5.40489 4.99635 5.26872 5.22047 5.17581C5.44459 5.0829 5.68482 5.03508 5.92743 5.03508C6.17005 5.03508 6.41028 5.0829 6.6344 5.17581C6.85852 5.26872 7.06213 5.40489 7.23359 5.57654L7.28897 5.63192C7.50652 5.84472 7.78283 5.98748 8.08228 6.04177C8.38172 6.09606 8.69056 6.05941 8.96897 5.93653H9.04282C9.31584 5.81952 9.54868 5.62523 9.71269 5.37758C9.8767 5.12993 9.96471 4.83972 9.9659 4.54269V4.38577C9.9659 3.89614 10.1604 3.42656 10.5066 3.08034C10.8528 2.73412 11.3224 2.53961 11.812 2.53961C12.3017 2.53961 12.7713 2.73412 13.1175 3.08034C13.4637 3.42656 13.6582 3.89614 13.6582 4.38577V4.46884C13.6594 4.76588 13.7474 5.05608 13.9114 5.30373C14.0754 5.55139 14.3083 5.74568 14.5813 5.86269C14.8597 5.98556 15.1685 6.02222 15.468 5.96792C15.7674 5.91363 16.0437 5.77088 16.2613 5.55807L16.3167 5.50269C16.4881 5.33104 16.6917 5.19487 16.9159 5.10196C17.14 5.00906 17.3802 4.96124 17.6228 4.96124C17.8654 4.96124 18.1057 5.00906 18.3298 5.10196C18.5539 5.19487 18.7575 5.33104 18.929 5.50269C19.1006 5.67415 19.2368 5.87776 19.3297 6.10188C19.4226 6.326 19.4704 6.56623 19.4704 6.80884C19.4704 7.05146 19.4226 7.29169 19.3297 7.51581C19.2368 7.73993 19.1006 7.94354 18.929 8.115L18.8736 8.17038C18.6608 8.38793 18.518 8.66424 18.4637 8.96368C18.4094 9.26313 18.4461 9.57197 18.569 9.85038V9.92423C18.686 10.1972 18.8803 10.4301 19.1279 10.5941C19.3756 10.7581 19.6658 10.8461 19.9628 10.8473H20.1197C20.6094 10.8473 21.0789 11.0418 21.4252 11.388C21.7714 11.7343 21.9659 12.2038 21.9659 12.6935C21.9659 13.1831 21.7714 13.6527 21.4252 13.9989C21.0789 14.3451 20.6094 14.5396 20.1197 14.5396H20.0367C19.7396 14.5408 19.4494 14.6288 19.2018 14.7928C18.9541 14.9568 18.7598 15.1897 18.6428 15.4627V15.4627Z" stroke="#34353C" stroke-width="1.84615" stroke-linecap="round" stroke-linejoin="round"/>
</g>
<defs>
<clipPath id="clip0_205_506">
<rect width="22.1538" height="22.1538" fill="white" transform="translate(0.735352 1.61652)"/>
</clipPath>
</defs>
</svg>
