<svg xmlns="http://www.w3.org/2000/svg" xmlns:xlink="http://www.w3.org/1999/xlink" fill="none" version="1.1" width="24"
  height="24" viewBox="0 0 24 24">
  <defs>
    <clipPath id="master_svg0_sa221_2098">
      <rect x="0" y="0" width="24" height="24" rx="0" />
    </clipPath>
  </defs>
  <g clip-path="url(#master_svg0_sa221_2098)">
    <g>
      <path
        d="M9.5,15L9.5,12L9.5,9Q9.5,8.9015086,9.519214999999999,8.80491Q9.53843,8.708311,9.576121,8.617317Q9.613812,8.526322,9.66853,8.44443Q9.723249,8.362537,9.792893,8.292893Q9.862537,8.223249,9.94443,8.16853Q10.026322,8.113812,10.117317,8.076121Q10.208311,8.03843,10.30491,8.019214999999999Q10.4015086,8,10.5,8Q10.776984,8,11.014496,8.142507L13.5145,9.642507L16.014499999999998,11.14251Q16.098950000000002,11.19318,16.1719,11.259360000000001Q16.24484,11.32553,16.30348,11.40467Q16.36211,11.4838,16.40418,11.57286Q16.44625,11.66191,16.47014,11.75746Q16.494030000000002,11.85301,16.498820000000002,11.95139Q16.5036,12.04976,16.48911,12.14718Q16.47461,12.2446,16.44139,12.33732Q16.40817,12.43004,16.35749,12.5145Q16.22887,12.72887,16.014499999999998,12.85749L13.5145,14.35749L11.014496,15.85749Q10.93004,15.90817,10.837321,15.94139Q10.744602,15.97461,10.647184,15.98911Q10.549765,16.0036,10.45139,15.99882Q10.353015,15.99403,10.257464,15.97014Q10.161914,15.94625,10.072859,15.90418Q9.983805,15.862110000000001,9.904669,15.80348Q9.825533,15.74484,9.759357,15.6719Q9.693181,15.59895,9.642507,15.5145Q9.5,15.27698,9.5,15ZM11.5,15L10.5,15L9.985504,14.14251L12.4855,12.64251L14.9855,11.14251L15.5,12L14.9855,12.85749L12.4855,11.35749L9.985504,9.857493L10.5,9L11.5,9L11.5,12L11.5,15Z"
        fill="#333333" fill-opacity="1" />
    </g>
    <g>
      <path
        d="M2.252263,7.836Q4.07899,5.7789,4.92894,4.92894Q6.312469999999999,3.545386,8.107230000000001,2.786263Q9.966149999999999,2,12,2Q14.0338,2,15.8928,2.786262Q17.6875,3.545381,19.0711,4.92894Q20.4546,6.31249,21.2137,8.10725Q22,9.96617,22,12Q22,14.0338,21.2137,15.8928Q20.4546,17.6875,19.0711,19.0711Q17.6875,20.4546,15.8928,21.2137Q14.0338,22,12,22Q9.966149999999999,22,8.107230000000001,21.2137Q6.31246,20.4546,4.92893,19.071Q4.85929,19.0014,4.80457,18.9195Q4.74985,18.837600000000002,4.71216,18.7466Q4.67448,18.6556,4.65526,18.558999999999997Q4.63605,18.462400000000002,4.63605,18.3639Q4.63605,18.2654,4.65527,18.168799999999997Q4.67448,18.072200000000002,4.71218,17.981299999999997Q4.74987,17.8903,4.80459,17.8084Q4.85931,17.7265,4.92895,17.6568Q4.9986,17.5872,5.08049,17.5325Q5.16239,17.477800000000002,5.25338,17.4401Q5.34437,17.4024,5.44097,17.383200000000002Q5.5375700000000005,17.3639,5.6360600000000005,17.3639Q5.73456,17.364,5.831160000000001,17.383200000000002Q5.92775,17.4024,6.01875,17.4401Q6.10974,17.477800000000002,6.19163,17.5325Q6.2735199999999995,17.5872,6.343170000000001,17.6569Q8.68624,20,12,20Q15.3137,20,17.6568,17.6568Q20,15.3137,20,12Q20,8.6863,17.6568,6.34315Q15.3137,4,12,4Q8.68626,4,6.34316,6.34316Q5.5351099999999995,7.1512,3.747737,9.164Q3.682339,9.237639999999999,3.60383,9.29711Q3.525321,9.35659,3.436718,9.3996Q3.348116,9.44261,3.252824,9.46751Q3.157532,9.49241,3.0592139,9.49824Q2.9608953,9.50408,2.863328,9.49061Q2.765761,9.47715,2.672695,9.44492Q2.579628,9.41268,2.4946390000000003,9.36291Q2.40965,9.313130000000001,2.336004,9.24774Q2.262359,9.18234,2.202887,9.10383Q2.143415,9.02532,2.100402,8.936720000000001Q2.057389,8.84811,2.032488,8.75282Q2.007587,8.657530000000001,2.001755,8.55921Q1.99592,8.46089,2.009384,8.363330000000001Q2.0228450000000002,8.26576,2.055082,8.17269Q2.087318,8.07963,2.137092,7.99464Q2.186866,7.90965,2.252263,7.836ZM4,8.5Q4,8.59849,3.980785,8.69509Q3.96157,8.79169,3.923879,8.88268Q3.8861879999999998,8.97368,3.83147,9.05557Q3.776751,9.13746,3.707107,9.20711Q3.637463,9.27675,3.55557,9.33147Q3.473678,9.38619,3.382683,9.42388Q3.291689,9.46157,3.19509,9.48078Q3.0984914,9.5,3,9.5Q2.9015086,9.5,2.80491,9.48078Q2.708311,9.46157,2.617317,9.42388Q2.526322,9.38619,2.44443,9.33147Q2.362537,9.27675,2.292893,9.20711Q2.223249,9.13746,2.16853,9.05557Q2.1138120000000002,8.97368,2.076121,8.88268Q2.03843,8.79169,2.019215,8.69509Q2,8.59849,2,8.5Q2,8.40151,2.019215,8.30491Q2.03843,8.20831,2.076121,8.11732Q2.1138120000000002,8.02632,2.16853,7.94443Q2.223249,7.86254,2.292893,7.79289Q2.362537,7.72325,2.44443,7.66853Q2.526322,7.61381,2.617317,7.57612Q2.708311,7.53843,2.80491,7.51921Q2.9015086,7.5,3,7.5Q3.0984914,7.5,3.19509,7.51921Q3.291689,7.53843,3.382683,7.57612Q3.473678,7.61381,3.55557,7.66853Q3.637463,7.72325,3.707107,7.79289Q3.776751,7.86254,3.83147,7.94443Q3.8861879999999998,8.02632,3.923879,8.11732Q3.96157,8.20831,3.980785,8.30491Q4,8.40151,4,8.5ZM6.63605,18.364Q6.63605,18.462400000000002,6.61684,18.558999999999997Q6.59762,18.6556,6.55993,18.7466Q6.52224,18.837600000000002,6.46752,18.9195Q6.4128,19.0014,6.34316,19.0711Q6.27351,19.1407,6.19162,19.1954Q6.10973,19.2501,6.01873,19.2878Q5.92774,19.3255,5.8311399999999995,19.3447Q5.73454,19.3639,5.63605,19.364Q5.53756,19.3639,5.4409600000000005,19.3447Q5.34436,19.3255,5.25337,19.2878Q5.16237,19.2501,5.08048,19.1954Q4.99859,19.1407,4.92894,19.0711Q4.8593,19.0014,4.80458,18.9195Q4.74986,18.837600000000002,4.71217,18.7466Q4.67448,18.6556,4.65526,18.558999999999997Q4.63605,18.462400000000002,4.63605,18.364Q4.63605,18.2655,4.65526,18.1689Q4.67448,18.0723,4.71217,17.981299999999997Q4.74986,17.8903,4.80458,17.8084Q4.8593,17.7265,4.92894,17.6568Q4.99859,17.5872,5.08048,17.5325Q5.16237,17.477800000000002,5.25337,17.4401Q5.34436,17.4024,5.4409600000000005,17.383200000000002Q5.53756,17.364,5.63605,17.364Q5.73454,17.364,5.8311399999999995,17.383200000000002Q5.92774,17.4024,6.01873,17.4401Q6.10973,17.477800000000002,6.19162,17.5325Q6.27351,17.5872,6.34316,17.6568Q6.4128,17.7265,6.46752,17.8084Q6.52224,17.8903,6.55993,17.981299999999997Q6.59762,18.0723,6.61684,18.1689Q6.63605,18.2655,6.63605,18.364Z"
        fill="#333333" fill-opacity="1" />
    </g>
    <g>
      <path
        d="M7,9.5L3,9.5Q2.9015086,9.5,2.80491,9.48078Q2.708311,9.46157,2.617317,9.42388Q2.526322,9.38619,2.44443,9.33147Q2.362537,9.27675,2.292893,9.20711Q2.223249,9.13746,2.16853,9.05557Q2.1138120000000002,8.97368,2.076121,8.88268Q2.03843,8.79169,2.019215,8.69509Q2,8.59849,2,8.5L2,4.5Q2,4.4015086,2.019215,4.30491Q2.03843,4.208311,2.076121,4.117317Q2.1138120000000002,4.026322,2.16853,3.94443Q2.223249,3.862537,2.292893,3.792893Q2.362537,3.723249,2.44443,3.66853Q2.526322,3.6138120000000002,2.617317,3.576121Q2.708311,3.53843,2.80491,3.519215Q2.9015086,3.5,3,3.5Q3.0984914,3.5,3.19509,3.519215Q3.291689,3.53843,3.382683,3.576121Q3.473678,3.6138120000000002,3.55557,3.66853Q3.637463,3.723249,3.707107,3.792893Q3.776751,3.862537,3.83147,3.94443Q3.8861879999999998,4.026322,3.923879,4.117317Q3.96157,4.208311,3.980785,4.30491Q4,4.4015086,4,4.5L4,8.5L3,8.5L3,7.5L7,7.5Q7.09849,7.5,7.19509,7.51921Q7.29169,7.53843,7.38268,7.5761199999999995Q7.47368,7.61381,7.55557,7.6685300000000005Q7.63746,7.72325,7.70711,7.79289Q7.77675,7.86254,7.83147,7.9444300000000005Q7.88619,8.02632,7.92388,8.11732Q7.96157,8.20831,7.98078,8.30491Q8,8.40151,8,8.5Q8,8.59849,7.98078,8.69509Q7.96157,8.79169,7.92388,8.88268Q7.88619,8.97368,7.83147,9.05557Q7.77675,9.13746,7.70711,9.20711Q7.63746,9.27675,7.55557,9.33147Q7.47368,9.38619,7.38268,9.42388Q7.29169,9.46157,7.19509,9.48078Q7.09849,9.5,7,9.5ZM8,8.5Q8,8.59849,7.98078,8.69509Q7.96157,8.79169,7.92388,8.88268Q7.88619,8.97368,7.83147,9.05557Q7.77675,9.13746,7.70711,9.20711Q7.63746,9.27675,7.55557,9.33147Q7.47368,9.38619,7.38268,9.42388Q7.29169,9.46157,7.19509,9.48078Q7.09849,9.5,7,9.5Q6.90151,9.5,6.80491,9.48078Q6.70831,9.46157,6.617319999999999,9.42388Q6.52632,9.38619,6.4444300000000005,9.33147Q6.36254,9.27675,6.29289,9.20711Q6.22325,9.13746,6.1685300000000005,9.05557Q6.11381,8.97368,6.0761199999999995,8.88268Q6.03843,8.79169,6.01921,8.69509Q6,8.59849,6,8.5Q6,8.40151,6.01921,8.30491Q6.03843,8.20831,6.0761199999999995,8.11732Q6.11381,8.02632,6.1685300000000005,7.9444300000000005Q6.22325,7.86254,6.29289,7.79289Q6.36254,7.72325,6.4444300000000005,7.6685300000000005Q6.52632,7.61381,6.617319999999999,7.5761199999999995Q6.70831,7.53843,6.80491,7.51921Q6.90151,7.5,7,7.5Q7.09849,7.5,7.19509,7.51921Q7.29169,7.53843,7.38268,7.5761199999999995Q7.47368,7.61381,7.55557,7.6685300000000005Q7.63746,7.72325,7.70711,7.79289Q7.77675,7.86254,7.83147,7.9444300000000005Q7.88619,8.02632,7.92388,8.11732Q7.96157,8.20831,7.98078,8.30491Q8,8.40151,8,8.5ZM4,4.5Q4,4.5984914,3.980785,4.69509Q3.96157,4.791689,3.923879,4.882683Q3.8861879999999998,4.973678,3.83147,5.05557Q3.776751,5.137463,3.707107,5.207107Q3.637463,5.276751,3.55557,5.33147Q3.473678,5.386188,3.382683,5.423879Q3.291689,5.46157,3.19509,5.480785Q3.0984914,5.5,3,5.5Q2.9015086,5.5,2.80491,5.480785Q2.708311,5.46157,2.617317,5.423879Q2.526322,5.386188,2.44443,5.33147Q2.362537,5.276751,2.292893,5.207107Q2.223249,5.137463,2.16853,5.05557Q2.1138120000000002,4.973678,2.076121,4.882683Q2.03843,4.791689,2.019215,4.69509Q2,4.5984914,2,4.5Q2,4.4015086,2.019215,4.30491Q2.03843,4.208311,2.076121,4.117317Q2.1138120000000002,4.026322,2.16853,3.94443Q2.223249,3.862537,2.292893,3.792893Q2.362537,3.723249,2.44443,3.66853Q2.526322,3.6138120000000002,2.617317,3.576121Q2.708311,3.53843,2.80491,3.519215Q2.9015086,3.5,3,3.5Q3.0984914,3.5,3.19509,3.519215Q3.291689,3.53843,3.382683,3.576121Q3.473678,3.6138120000000002,3.55557,3.66853Q3.637463,3.723249,3.707107,3.792893Q3.776751,3.862537,3.83147,3.94443Q3.8861879999999998,4.026322,3.923879,4.117317Q3.96157,4.208311,3.980785,4.30491Q4,4.4015086,4,4.5Z"
        fill="#333333" fill-opacity="1" />
    </g>
  </g>
</svg>
