<svg xmlns="http://www.w3.org/2000/svg" xmlns:xlink="http://www.w3.org/1999/xlink" fill="none" version="1.1" width="24"
  height="24" viewBox="0 0 24 24">
  <defs>
    <clipPath id="master_svg0_215_2707">
      <rect x="0" y="0" width="24" height="24" rx="0" />
    </clipPath>
  </defs>
  <g clip-path="url(#master_svg0_215_2707)">
    <g>
      <path
        d="M5.329997176513672,3.271000091659546C6.603777176513672,2.816587091659546,8.025367176513672,3.1366850916595457,8.981447176513672,4.093193091659546C9.937517176513673,5.049693091659546,10.256987176513672,6.471433091659546,9.801997176513673,7.745003091659546L20.646987176513672,18.590013091659547L18.524987176513672,20.711013091659545L7.679997176513672,9.867003091659546C6.4062271765136725,10.321413091659545,4.984637176513672,10.001313091659547,4.028557176513672,9.044813091659545C3.072480676513672,8.088303091659546,2.753018176513672,6.666573091659545,3.208000176513672,5.393003091659546L5.443997176513672,7.630003091659546C6.0266071765136715,8.233213091659547,6.990597176513672,8.241583091659546,7.583587176513672,7.648593091659546C8.17658717651367,7.055593091659546,8.168207176513672,6.091603091659546,7.564997176513672,5.509003091659546L5.328997176513672,3.2700000916595457L5.329997176513672,3.271000091659546ZM15.696987176513671,5.155003091659546L18.87898717651367,3.3870000916595457L20.292987176513673,4.801003091659545L18.524987176513672,7.983003091659546L16.75698717651367,8.337003091659547L14.636987176513673,10.458003091659545L13.221987176513672,9.044003091659546L15.342987176513672,6.923003091659545L15.696987176513671,5.155003091659546ZM8.625997176513671,12.933003091659545L10.746997176513672,15.055013091659546L5.796997176513672,20.005013091659546C5.230157176513671,20.566513091659544,4.322917176513672,20.586013091659545,3.732461176513672,20.049413091659545C3.1420071765136717,19.512713091659545,3.0750097765136717,18.607713091659548,3.5800001765136718,17.990013091659545L3.6770001765136717,17.883013091659546L8.626997176513672,12.933003091659545L8.625997176513671,12.933003091659545Z"
        fill="#333333" fill-opacity="1" />
    </g>
  </g>
</svg>
